<svg xmlns="http://www.w3.org/2000/svg" viewBox="0 0 280 320" width="280" height="320">
  <!-- Pacta stacked lockup — symbol above, wordmark below.
       For use on splash screens, marketing pages, large-format contexts. -->
  <!-- Symbol -->
  <g transform="translate(40, 20)">
    <circle cx="100" cy="100" r="88" fill="none" stroke="#1f2937" stroke-width="6"/>
    <circle cx="100" cy="100" r="78" fill="none" stroke="#1f2937" stroke-width="1.5"/>
    <circle cx="100" cy="14" r="2" fill="#1f2937"/>
    <circle cx="100" cy="186" r="2" fill="#1f2937"/>
    <circle cx="14" cy="100" r="2" fill="#1f2937"/>
    <circle cx="186" cy="100" r="2" fill="#1f2937"/>
    <path d="
      M 70 50
      L 70 150
      L 88 150
      L 88 105
      L 113 105
      A 27.5 27.5 0 0 0 113 50
      L 70 50
      Z
      M 88 64
      L 113 64
      A 13.5 13.5 0 0 1 113 91
      L 88 91
      Z
    " fill="#1f2937" fill-rule="evenodd"/>
    <circle cx="100" cy="160" r="3.5" fill="#1f2937"/>
  </g>
  <!-- Wordmark below seal -->
  <text x="140" y="270" font-family="-apple-system, BlinkMacSystemFont, 'Segoe UI', system-ui, 'Helvetica Neue', sans-serif" font-weight="600" font-size="52" fill="#1f2937" text-anchor="middle" letter-spacing="-1.5">pacta</text>
  <text x="140" y="295" font-family="-apple-system, BlinkMacSystemFont, 'Segoe UI', system-ui, 'Helvetica Neue', sans-serif" font-weight="400" font-size="11" fill="#6b7280" text-anchor="middle" letter-spacing="2.5">BY BIZRETHINK AI</text>
</svg>
